<svg width="32" height="32" viewBox="0 0 32 26" fill="none" xmlns="http://www.w3.org/2000/svg">
  <style>
    .left  { fill: #00072D; }
    .right { fill: #7C3AED; }

    @media (prefers-color-scheme: dark) {
      .left  { fill: #F9FAFB; }
      .right { fill: #7C3AED; }
    }
  </style>
  <path class="left"  d="M0 2.60552C0 0.413723 2.51515 -0.795008 4.19411 0.589804L13.7829 8.49858C14.7809 9.32174 15.36 10.5558 15.36 11.8587V13.7415C15.36 15.0443 14.7809 16.2784 13.7829 17.1015L4.19411 25.0103C2.51521 26.3949 0.000189399 25.1862 0 22.9946V19.3594L8.6434 12.8001L0 6.24074V2.60552Z"/>
  <path class="right" d="M32 2.60552C32 0.413724 29.6946 -0.79501 28.1556 0.589806L19.3663 8.4986C18.4516 9.32176 17.92 10.5558 17.92 11.8587V13.7415C17.92 15.0443 18.4516 16.2784 19.3663 17.1016L28.1556 25.0104C29.6945 26.3949 31.9998 25.1862 32 22.9947V19.3594L24.0773 12.8001L32 6.24076V2.60552Z"/>
</svg>