<svg width="58" height="50" viewBox="0 0 58 50" fill="none" xmlns="http://www.w3.org/2000/svg">
<path d="M10 13.0059C10 10.4777 12.9358 9.08261 14.8955 10.6797L26.0879 19.8037C27.2527 20.7532 27.9286 22.1759 27.9287 23.6787V25.8516C27.9286 27.3543 27.2527 28.7771 26.0879 29.7266L14.8955 38.8506C12.9358 40.4477 10 39.0526 10 36.5244V32.332L20.0889 24.7656L10 17.1992V13.0059Z" fill="#F9FAFB"/>
<path d="M47.8584 13.0059C47.8584 10.4777 44.9226 9.08267 42.9629 10.6797L31.7705 19.8037C30.6057 20.7532 29.9288 22.176 29.9287 23.6787V25.8516C29.9288 27.3543 30.6057 28.7771 31.7705 29.7266L42.9629 38.8506C44.9226 40.4476 47.8584 39.0526 47.8584 36.5244V32.3311L37.7695 24.7647L47.8584 17.1983V13.0059Z" fill="#7C3AED"/>
</svg>
