<svg width="194" height="51" viewBox="0 0 194 51" fill="none" xmlns="http://www.w3.org/2000/svg">
<path d="M122.074 35.3262V14.8346H125.976V35.3262H122.074ZM125.414 35.3262V31.9577H134.706V35.3262H125.414ZM125.414 26.5962V23.2277H133.976V26.5962H125.414ZM125.414 18.2031V14.8346H134.481V18.2031H125.414Z" fill="#F9FAFB"/>
<path d="M84.0636 35.3262V14.8346H89.5093L94.6462 27.0734H95.1515L100.26 14.8346H105.79V35.3262H101.832V17.8382L102.338 17.8943L96.8076 31.1436H92.7374L87.1794 17.8943L87.7128 17.8382V35.3262H84.0636Z" fill="#F9FAFB"/>
<path d="M57.3198 35.3262V14.8346H61.3058V35.3262H57.3198ZM60.7444 35.3262V31.8173H69.5867V35.3262H60.7444Z" fill="#F9FAFB"/>
<path d="M36.9918 35.3262V14.8346H40.9778V35.3262H36.9918Z" fill="#F9FAFB"/>
<path d="M10.0001 35.3261V14.8346H13.9861V35.3261H10.0001ZM13.4247 26.7927V23.4242L21.6213 23.3961V26.7646L13.4247 26.7927ZM13.4247 18.2031V14.8346H22.0143V18.2031H13.4247Z" fill="#F9FAFB"/>
<path d="M144.706 13.0061C144.706 10.4876 147.621 9.08995 149.585 10.6672L161.286 20.0686C162.467 21.0176 163.154 22.4518 163.154 23.967V26.1945C163.154 27.7096 162.467 29.1429 161.286 30.092L149.585 39.4934C147.622 41.0708 144.706 39.6738 144.706 37.1555V32.7551L154.938 25.0803L144.706 17.4064V13.0061Z" fill="#F9FAFB"/>
<path d="M183.505 13.006C183.505 10.4876 180.589 9.0899 178.626 10.6671L166.925 20.0685C165.744 21.0176 165.057 22.4518 165.057 23.9669V26.1945C165.057 27.7096 165.744 29.1429 166.925 30.0919L178.626 39.4933C180.589 41.0707 183.505 39.6738 183.505 37.1554V32.755L173.272 25.0802L183.505 17.4064V13.006Z" fill="#7C3AED"/>
</svg>

